<svg xmlns="http://www.w3.org/2000/svg" xmlns:xlink="http://www.w3.org/1999/xlink" width="500" zoomAndPan="magnify" viewBox="0 0 375 374.999991" height="500" preserveAspectRatio="xMidYMid meet" version="1.0"><defs><g/><clipPath id="66e205f31e"><path d="M 17.25 0 L 357.75 0 C 362.324219 0 366.710938 1.816406 369.949219 5.050781 C 373.183594 8.289062 375 12.675781 375 17.25 L 375 357.75 C 375 362.324219 373.183594 366.710938 369.949219 369.949219 C 366.710938 373.183594 362.324219 375 357.75 375 L 17.25 375 C 12.675781 375 8.289062 373.183594 5.050781 369.949219 C 1.816406 366.710938 0 362.324219 0 357.75 L 0 17.25 C 0 12.675781 1.816406 8.289062 5.050781 5.050781 C 8.289062 1.816406 12.675781 0 17.25 0 Z M 17.25 0 " clip-rule="nonzero"/></clipPath><clipPath id="c87f7d7c45"><path d="M 0 0 L 375 0 L 375 375 L 0 375 Z M 0 0 " clip-rule="nonzero"/></clipPath><clipPath id="08ac4f5f95"><path d="M 17.25 0 L 357.75 0 C 362.324219 0 366.710938 1.816406 369.949219 5.050781 C 373.183594 8.289062 375 12.675781 375 17.25 L 375 357.75 C 375 362.324219 373.183594 366.710938 369.949219 369.949219 C 366.710938 373.183594 362.324219 375 357.75 375 L 17.25 375 C 12.675781 375 8.289062 373.183594 5.050781 369.949219 C 1.816406 366.710938 0 362.324219 0 357.75 L 0 17.25 C 0 12.675781 1.816406 8.289062 5.050781 5.050781 C 8.289062 1.816406 12.675781 0 17.25 0 Z M 17.25 0 " clip-rule="nonzero"/></clipPath><clipPath id="69801adb14"><rect x="0" width="375" y="0" height="375"/></clipPath><clipPath id="c7082fa317"><path d="M 173 189.300781 L 183 189.300781 L 183 205 L 173 205 Z M 173 189.300781 " clip-rule="nonzero"/></clipPath><clipPath id="e92396c4ae"><path d="M 154 189.300781 L 172 189.300781 L 172 208 L 154 208 Z M 154 189.300781 " clip-rule="nonzero"/></clipPath><clipPath id="2673bef818"><path d="M 154 195 L 191.222656 195 L 191.222656 229 L 154 229 Z M 154 195 " clip-rule="nonzero"/></clipPath></defs><g clip-path="url(#66e205f31e)"><g transform="matrix(1, 0, 0, 1, 0, 0)"><g clip-path="url(#69801adb14)"><g clip-path="url(#c87f7d7c45)"><g clip-path="url(#08ac4f5f95)"><rect x="-82.5" width="540" fill="#ff3131" height="539.999987" y="-82.499998" fill-opacity="1"/></g></g></g></g></g><g fill="#ffffff" fill-opacity="1"><g transform="translate(17.039066, 251.999983)"><g><path d="M 90.4375 0 L 82.40625 -15.5625 L 40.515625 -15.5625 L 32.484375 0 L 1.703125 0 L 61.546875 -111.125 L 121.21875 0 Z M 71.640625 -36.421875 L 61.546875 -55.90625 L 51.296875 -36.421875 Z M 71.640625 -36.421875 "/></g></g></g><g fill="#ffffff" fill-opacity="1"><g transform="translate(126.285217, 251.999983)"><g><path d="M 74.03125 0 L 74.03125 -10.09375 C 65.820312 -3.363281 56.53125 0 46.15625 0 C 34.070312 0.113281 23.703125 -4.101562 15.046875 -12.65625 C 6.378906 -21.195312 1.988281 -31.566406 1.875 -43.765625 C 1.757812 -55.847656 5.976562 -66.222656 14.53125 -74.890625 C 23.082031 -83.546875 33.457031 -87.929688 45.65625 -88.046875 C 56.25 -88.046875 65.648438 -84.6875 73.859375 -77.96875 L 73.859375 -119.34375 L 97.796875 -119.34375 L 97.96875 0 Z M 61.375 -28.71875 C 65.59375 -32.9375 67.703125 -38.066406 67.703125 -44.109375 C 67.472656 -50.265625 65.304688 -55.394531 61.203125 -59.5 C 56.867188 -63.601562 51.738281 -65.65625 45.8125 -65.65625 C 39.78125 -65.65625 34.65625 -63.546875 30.4375 -59.328125 C 26.21875 -54.648438 24.164062 -49.519531 24.28125 -43.9375 C 24.28125 -37.894531 26.390625 -32.765625 30.609375 -28.546875 C 34.816406 -24.328125 39.941406 -22.21875 45.984375 -22.21875 C 52.140625 -22.445312 57.269531 -24.613281 61.375 -28.71875 Z M 61.375 -28.71875 "/></g></g></g><g fill="#ffffff" fill-opacity="1"><g transform="translate(229.377034, 251.999983)"><g><path d="M 123.4375 -111.125 L 123.4375 0 L 96.765625 0 L 96.765625 -62.234375 L 63.765625 -41.203125 L 31.796875 -62.0625 L 31.796875 0 L 5.125 0 L 5.125 -111.125 L 64.109375 -73 Z M 123.4375 -111.125 "/></g></g></g><g clip-path="url(#c7082fa317)"><path fill="#ffffff" d="M 174.164062 204.9375 C 174.132812 204.9375 174.101562 204.933594 174.070312 204.925781 C 173.902344 204.878906 173.8125 204.769531 173.804688 204.59375 L 173.039062 189.703125 C 173.035156 189.59375 173.070312 189.503906 173.144531 189.429688 C 173.210938 189.359375 173.292969 189.320312 173.386719 189.320312 C 176.644531 189.417969 179.703125 190.246094 182.5625 191.804688 C 182.652344 191.855469 182.714844 191.933594 182.738281 192.035156 C 182.765625 192.140625 182.746094 192.234375 182.691406 192.324219 L 174.46875 204.777344 C 174.398438 204.882812 174.296875 204.9375 174.164062 204.9375 Z M 174.164062 204.9375 " fill-opacity="1" fill-rule="nonzero"/></g><g clip-path="url(#e92396c4ae)"><path fill="#ffffff" d="M 171.003906 207.453125 C 170.953125 207.453125 170.90625 207.441406 170.859375 207.421875 L 155.03125 200.515625 C 154.933594 200.472656 154.867188 200.402344 154.832031 200.300781 C 154.796875 200.199219 154.804688 200.105469 154.855469 200.011719 C 155.621094 198.597656 156.539062 197.289062 157.613281 196.09375 C 158.683594 194.894531 159.882812 193.839844 161.203125 192.925781 C 162.527344 192.011719 163.9375 191.265625 165.433594 190.683594 C 166.933594 190.101562 168.480469 189.703125 170.070312 189.488281 C 170.089844 189.484375 170.105469 189.484375 170.121094 189.484375 C 170.21875 189.484375 170.300781 189.519531 170.371094 189.585938 C 170.441406 189.652344 170.480469 189.734375 170.484375 189.828125 L 171.367188 207.070312 C 171.371094 207.171875 171.339844 207.261719 171.269531 207.339844 C 171.195312 207.414062 171.109375 207.453125 171.003906 207.453125 Z M 171.003906 207.453125 " fill-opacity="1" fill-rule="nonzero"/></g><g clip-path="url(#2673bef818)"><path fill="#ffffff" d="M 184.152344 195.179688 C 183.984375 195.046875 183.796875 195 183.585938 195.03125 C 183.375 195.066406 183.214844 195.171875 183.097656 195.347656 L 173.882812 209.308594 C 173.71875 209.558594 173.710938 209.8125 173.859375 210.070312 L 182.222656 224.554688 C 182.328125 224.742188 182.484375 224.855469 182.695312 224.902344 C 182.902344 224.949219 183.09375 224.910156 183.265625 224.789062 C 183.859375 224.382812 184.421875 223.941406 184.960938 223.464844 C 185.5 222.988281 186.007812 222.484375 186.488281 221.949219 C 186.96875 221.417969 187.414062 220.855469 187.828125 220.269531 C 188.242188 219.683594 188.621094 219.074219 188.964844 218.441406 C 189.308594 217.8125 189.613281 217.164062 189.878906 216.496094 C 190.144531 215.828125 190.371094 215.148438 190.558594 214.457031 C 190.746094 213.761719 190.890625 213.058594 190.996094 212.351562 C 191.101562 211.640625 191.164062 210.925781 191.1875 210.207031 C 191.207031 209.488281 191.1875 208.773438 191.125 208.058594 C 191.0625 207.34375 190.960938 206.632812 190.8125 205.929688 C 190.667969 205.226562 190.484375 204.535156 190.257812 203.851562 C 190.03125 203.171875 189.765625 202.503906 189.460938 201.855469 C 189.15625 201.203125 188.8125 200.574219 188.4375 199.964844 C 188.058594 199.351562 187.644531 198.765625 187.199219 198.203125 C 186.75 197.640625 186.273438 197.109375 185.761719 196.601562 C 185.253906 196.097656 184.71875 195.621094 184.152344 195.179688 Z M 183.078125 223.128906 L 175.34375 209.734375 L 183.863281 196.824219 C 184.339844 197.234375 184.792969 197.667969 185.21875 198.128906 C 185.644531 198.589844 186.046875 199.074219 186.421875 199.578125 C 186.792969 200.085938 187.136719 200.609375 187.453125 201.152344 C 187.769531 201.695312 188.054688 202.253906 188.304688 202.832031 C 188.558594 203.40625 188.78125 203.992188 188.96875 204.59375 C 189.15625 205.191406 189.308594 205.800781 189.429688 206.417969 C 189.550781 207.035156 189.636719 207.65625 189.6875 208.28125 C 189.738281 208.910156 189.753906 209.535156 189.734375 210.164062 C 189.714844 210.792969 189.660156 211.417969 189.574219 212.039062 C 189.484375 212.660156 189.363281 213.277344 189.207031 213.886719 C 189.050781 214.492188 188.859375 215.089844 188.636719 215.679688 C 188.414062 216.265625 188.15625 216.839844 187.871094 217.398438 C 187.582031 217.957031 187.265625 218.5 186.917969 219.023438 C 186.574219 219.546875 186.195312 220.050781 185.792969 220.53125 C 185.390625 221.011719 184.960938 221.472656 184.507812 221.90625 C 184.054688 222.339844 183.578125 222.75 183.078125 223.128906 Z M 172.390625 210.433594 C 172.3125 210.296875 172.199219 210.195312 172.050781 210.132812 L 156.335938 203.273438 C 156.140625 203.1875 155.945312 203.1875 155.75 203.273438 C 155.554688 203.359375 155.425781 203.503906 155.355469 203.703125 C 155.066406 204.554688 154.839844 205.425781 154.675781 206.308594 C 154.511719 207.195312 154.414062 208.085938 154.382812 208.984375 C 154.347656 209.882812 154.382812 210.78125 154.480469 211.675781 C 154.578125 212.570312 154.742188 213.453125 154.96875 214.320312 C 155.199219 215.191406 155.488281 216.042969 155.839844 216.871094 C 156.195312 217.695312 156.605469 218.496094 157.074219 219.261719 C 157.542969 220.03125 158.066406 220.757812 158.640625 221.449219 C 159.21875 222.140625 159.84375 222.785156 160.511719 223.386719 C 161.183594 223.984375 161.894531 224.53125 162.644531 225.027344 C 163.398438 225.523438 164.179688 225.960938 164.996094 226.34375 C 165.8125 226.722656 166.648438 227.042969 167.511719 227.300781 C 168.375 227.558594 169.25 227.75 170.140625 227.878906 C 171.03125 228.007812 171.925781 228.074219 172.824219 228.070312 C 173.726562 228.070312 174.621094 228 175.511719 227.867188 C 176.398438 227.734375 177.273438 227.539062 178.136719 227.277344 C 178.996094 227.015625 179.835938 226.691406 180.648438 226.308594 C 180.839844 226.21875 180.96875 226.070312 181.03125 225.867188 C 181.09375 225.664062 181.074219 225.472656 180.964844 225.289062 Z M 172.78125 226.617188 C 172.125 226.617188 171.472656 226.578125 170.820312 226.503906 C 170.167969 226.429688 169.523438 226.316406 168.886719 226.164062 C 168.25 226.015625 167.621094 225.828125 167.003906 225.605469 C 166.390625 225.378906 165.789062 225.121094 165.199219 224.828125 C 164.613281 224.535156 164.046875 224.210938 163.5 223.851562 C 162.949219 223.492188 162.421875 223.105469 161.917969 222.683594 C 161.417969 222.265625 160.9375 221.816406 160.488281 221.339844 C 160.035156 220.867188 159.613281 220.367188 159.21875 219.84375 C 158.824219 219.316406 158.464844 218.773438 158.132812 218.207031 C 157.800781 217.640625 157.503906 217.058594 157.242188 216.457031 C 156.980469 215.855469 156.753906 215.242188 156.5625 214.613281 C 156.371094 213.988281 156.214844 213.351562 156.097656 212.707031 C 155.980469 212.0625 155.898438 211.414062 155.855469 210.757812 C 155.8125 210.105469 155.808594 209.449219 155.84375 208.792969 C 155.875 208.140625 155.949219 207.488281 156.054688 206.84375 C 156.164062 206.195312 156.3125 205.558594 156.492188 204.929688 L 171.25 211.367188 L 179.304688 225.316406 C 177.21875 226.1875 175.042969 226.621094 172.78125 226.617188 Z M 172.78125 226.617188 " fill-opacity="1" fill-rule="nonzero"/></g></svg>